<svg width="200" height="50" viewBox="0 0 200 50" fill="none" xmlns="http://www.w3.org/2000/svg">
<g clip-path="url(#clip0_604_108)">
<path d="M6.81836 1.8261V3.47827H23.3184C35.5456 3.47827 39.9547 3.34784 40.3638 2.95653C41.0456 2.30436 41.0911 1.00001 40.4093 0.652184C40.1365 0.478271 32.5002 0.304358 23.3638 0.26088L6.81836 0.217402V1.8261Z" fill="#06D2C8"/>
<path d="M69.9087 0.304358L51.3633 0.434793V1.95653V3.47827H71.0906C81.9542 3.47827 91.136 3.34784 91.5451 3.2174C91.9542 3.04349 92.2724 2.43479 92.2724 1.73914C92.2724 0.478271 91.2269 -0.0869462 89.3178 0.130445C88.8178 0.173923 80.0906 0.26088 69.9087 0.304358Z" fill="#06D2C8"/>
<path d="M99.5459 1.8261V3.47827H121.273C137.546 3.47827 143.137 3.34784 143.546 2.95653C144.273 2.26088 144.228 0.913054 143.5 0.652184C143.228 0.52175 133.182 0.391315 121.228 0.304358L99.5459 0.217402V1.8261Z" fill="#06D2C8"/>
<path d="M151.363 1.8261V3.47827H159.454C165.136 3.47827 167.727 3.30436 168.091 2.95653C168.818 2.26088 168.772 0.913054 168.091 0.652184C167.772 0.52175 163.863 0.391315 159.409 0.304358L151.363 0.217402V1.8261Z" fill="#06D2C8"/>
<path d="M182.272 1.95653V3.47827H190.409C197.227 3.47827 198.682 3.34784 199.272 2.78262C200.091 2.00001 200.091 2.04349 199.727 1.13045C199.5 0.521749 198.272 0.434793 190.863 0.434793H182.272V1.95653Z" fill="#06D2C8"/>
<path d="M3.18164 8.47826V10H21.7726C40.1362 10 40.4089 10 40.6816 9.13043C41.4089 6.95652 41.2271 6.95652 21.5453 6.95652H3.18164V8.47826Z" fill="#06D2C8"/>
<path d="M51.3633 8.47826V10L71.7269 9.91304L92.0451 9.78261V8.47826V7.17391L71.7269 7.04348L51.3633 6.95652V8.47826Z" fill="#06D2C8"/>
<path d="M99.5459 8.47826V10H121.591C141.591 10 143.682 9.91304 143.955 9.30435C144.091 8.91304 144.046 8.26087 143.773 7.86957C143.364 7.26087 141 7.17391 121.41 7.04348L99.5459 6.95652V8.47826Z" fill="#06D2C8"/>
<path d="M151.363 8.47826V10H159.772C167.181 10 168.227 9.91304 168.5 9.30435C168.636 8.91304 168.591 8.26087 168.318 7.86957C167.909 7.26087 166.636 7.17391 159.591 7.04348L151.363 6.95652V8.47826Z" fill="#06D2C8"/>
<path d="M182.272 8.47826V10H190.636C199.682 10 200.636 9.78261 199.545 7.86957C199.091 7 198.682 6.95652 190.682 6.95652H182.272V8.47826Z" fill="#06D2C8"/>
<path d="M0 15V16.5217L8.54545 16.4348L17.0455 16.3043L17.1818 15.2609C17.2727 14.6956 17.0909 14.0435 16.7273 13.8696C16.4091 13.6522 12.5 13.4783 8.09091 13.4783H0V15Z" fill="#06D2C8"/>
<path d="M51.3633 15V16.5217H59.7269C68.7724 16.5217 69.7269 16.3043 68.636 14.3913C68.1815 13.5217 67.7724 13.4783 59.7724 13.4783H51.3633V15Z" fill="#06D2C8"/>
<path d="M113.182 15V16.5217H121.773C130.045 16.5217 130.409 16.4783 130.682 15.6522C131.318 13.6956 130.454 13.4783 121.545 13.4783H113.182V15Z" fill="#06D2C8"/>
<path d="M151.363 15V16.5217H159.772C167.181 16.5217 168.227 16.4348 168.5 15.8261C168.636 15.4348 168.591 14.7826 168.318 14.3913C167.909 13.7826 166.636 13.6956 159.591 13.5652L151.363 13.4783V15Z" fill="#06D2C8"/>
<path d="M182.272 15V16.5217L190.727 16.4348C198.091 16.3043 199.272 16.2174 199.682 15.5652C200.045 15.0435 200 14.6522 199.591 14.1739C199.091 13.5652 197.682 13.4783 190.636 13.4783H182.272V15Z" fill="#06D2C8"/>
<path d="M151.363 21.8261V23.4783H159.5C168.045 23.4783 168.909 23.3044 168.545 21.4348C168.409 20.7391 167.636 20.6522 159.863 20.4348L151.363 20.2174V21.8261Z" fill="#06D2C8"/>
<path d="M182.272 21.8261V23.4783H190.409C197.227 23.4783 198.682 23.3478 199.272 22.7826C199.682 22.4348 200 22 200 21.8261C199.954 20.6087 198.954 20.4783 190.772 20.3478L182.272 20.2174V21.8261Z" fill="#06D2C8"/>
<path d="M3.18164 21.9565V23.4783L19.818 23.3913C34.5907 23.2609 36.5453 23.1739 36.9544 22.5652C37.2271 22.1739 37.2725 21.5217 37.1362 21.1304C36.8635 20.5217 35.1816 20.4348 19.9998 20.4348H3.18164V21.9565Z" fill="#06D2C8"/>
<path d="M51.3633 21.9565V23.4783L67.9996 23.3913C82.7724 23.2609 84.7269 23.1739 85.136 22.5652C85.4087 22.1739 85.4542 21.5217 85.3178 21.1304C85.0451 20.5217 83.3633 20.4348 68.1815 20.4348H51.3633V21.9565Z" fill="#06D2C8"/>
<path d="M113.182 21.9565V23.4783H121.545C130.454 23.4783 131.318 23.2609 130.682 21.3044C130.409 20.4783 130.045 20.4348 121.773 20.4348H113.182V21.9565Z" fill="#06D2C8"/>
<path d="M6.81836 28.0435V29.5652H23.6365C38.8184 29.5652 40.5002 29.4783 40.7729 28.8696C40.9093 28.4783 40.8638 27.8261 40.5911 27.4348C40.182 26.8261 38.2274 26.7391 23.4547 26.6087L6.81836 26.5217V28.0435Z" fill="#06D2C8"/>
<path d="M51.3633 28.0435V29.5652H68.1815C83.3633 29.5652 85.0451 29.4783 85.3178 28.8696C85.4542 28.4783 85.4087 27.8261 85.136 27.4348C84.7269 26.8261 82.7724 26.7391 67.9996 26.6087L51.3633 26.5217V28.0435Z" fill="#06D2C8"/>
<path d="M113.182 28.0435V29.5652L121.909 29.4783C130.136 29.3478 130.682 29.3043 130.818 28.5217C131.182 26.7826 129.818 26.5217 121.273 26.5217H113.182V28.0435Z" fill="#06D2C8"/>
<path d="M151.363 28.0435V29.5652H159.772C167.181 29.5652 168.227 29.4783 168.5 28.8696C168.636 28.4783 168.591 27.8261 168.318 27.4348C167.909 26.8261 166.636 26.7391 159.591 26.6087L151.363 26.5217V28.0435Z" fill="#06D2C8"/>
<path d="M182.272 28.1304V29.7826L190.772 29.6522C198.954 29.5217 199.954 29.3913 200 28.1739C200 28 199.682 27.5652 199.272 27.2174C198.682 26.6522 197.227 26.5217 190.409 26.5217H182.272V28.1304Z" fill="#06D2C8"/>
<path d="M27.2725 35V36.5217L35.727 36.4348C43.0906 36.3043 44.2725 36.2174 44.6816 35.5652C45.0452 35.0435 44.9997 34.6522 44.5906 34.1739C44.0906 33.5652 42.6816 33.4783 35.6361 33.4783H27.2725V35Z" fill="#06D2C8"/>
<path d="M51.3633 35V36.5217L59.9087 36.4348L68.4087 36.3043V35V33.6956L59.9087 33.5652L51.3633 33.4783V35Z" fill="#06D2C8"/>
<path d="M113.182 35V36.5217L121.636 36.4348C129 36.3043 130.182 36.2174 130.591 35.5652C130.954 35.0435 130.909 34.6522 130.5 34.1739C130 33.5652 128.591 33.4783 121.545 33.4783H113.182V35Z" fill="#06D2C8"/>
<path d="M151.363 35V36.5217H159.727C165.136 36.5217 168.227 36.3478 168.409 36.0435C168.591 35.8261 168.591 35.1304 168.454 34.5217L168.181 33.4783H159.772H151.363V35Z" fill="#06D2C8"/>
<path d="M182.272 35V36.5217H190.636C199.682 36.5217 200.636 36.3043 199.545 34.3913C199.091 33.5217 198.682 33.4783 190.682 33.4783H182.272V35Z" fill="#06D2C8"/>
<path d="M3.18164 41.5217V43.0435H21.5453C41.2271 43.0435 41.4089 43.0435 40.6816 40.8696C40.4089 40 40.1362 40 21.7726 40H3.18164V41.5217Z" fill="#06D2C8"/>
<path d="M55 41.5217V43.0435H73.4091C91.5 43.0435 91.7727 43.0435 92.2727 42.1304C93.4545 40.0435 93.1364 40 73.3636 40H55V41.5217Z" fill="#06D2C8"/>
<path d="M113.182 41.5217V43.0435L121.636 42.9565C129 42.8261 130.182 42.7391 130.591 42.087C130.954 41.5652 130.909 41.1739 130.5 40.6957C130 40.087 128.591 40 121.545 40H113.182V41.5217Z" fill="#06D2C8"/>
<path d="M155 41.5217V43.0435H176.818C196.955 43.0435 198.636 43 199.045 42.3044C199.318 41.8261 199.318 41.2609 199.045 40.7826C198.636 40.0435 197.227 40 176.818 40H155V41.5217Z" fill="#06D2C8"/>
<path d="M3.18164 48.0435V49.5652L20.1362 49.4783L37.0453 49.3478L37.1816 48.3043C37.2726 47.7391 37.0907 47.087 36.7271 46.913C36.4089 46.6957 28.7271 46.5217 19.6816 46.5217H3.18164V48.0435Z" fill="#06D2C8"/>
<path d="M58.6367 48.0435V49.5652H75.4094C91.9549 49.5652 92.2276 49.5652 92.5004 48.6957C93.2276 46.5652 92.864 46.5217 75.1822 46.5217H58.6367V48.0435Z" fill="#06D2C8"/>
<path d="M113.182 48.0435V49.5652H121.773C130.045 49.5652 130.409 49.5217 130.682 48.6957C131.318 46.7391 130.454 46.5217 121.545 46.5217H113.182V48.0435Z" fill="#06D2C8"/>
<path d="M158.182 48.0435V49.5652H178.591C196.773 49.5652 199.045 49.4783 199.273 48.8696C199.636 47.9565 199.636 48 198.818 47.2174C198.182 46.6087 195.682 46.5217 178.136 46.5217H158.182V48.0435Z" fill="#06D2C8"/>
</g>
<defs>
<clipPath id="clip0_604_108">
<rect width="200" height="50" fill="white"/>
</clipPath>
</defs>
</svg>
